<svg width="235" height="191" viewBox="0 0 235 191" fill="none" xmlns="http://www.w3.org/2000/svg">
<path d="M117.276 191C182.046 191 234.553 186.002 234.553 179.836C234.553 173.671 182.046 168.673 117.276 168.673C52.5064 168.673 0 173.671 0 179.836C0 186.002 52.5064 191 117.276 191Z" fill="#F5F5F5"/>
<path d="M54.8364 107.017H181.501V172.411C181.501 173.249 181.336 174.078 181.015 174.852C180.695 175.626 180.225 176.33 179.632 176.922C179.04 177.515 178.336 177.985 177.562 178.306C176.788 178.626 175.959 178.791 175.121 178.791H61.217C60.3791 178.791 59.5494 178.626 58.7753 178.306C58.0011 177.985 57.2977 177.515 56.7053 176.922C56.1128 176.33 55.6428 175.626 55.3221 174.852C55.0015 174.078 54.8364 173.249 54.8364 172.411V107.017Z" fill="#A5AEB4"/>
<path d="M54.8364 107.017H144.47L133.445 92.9049C132.232 91.3566 129.234 90.1042 126.739 90.1042H46.1285C43.6433 90.1042 42.598 91.3566 43.811 92.9049L54.8364 107.017Z" fill="#A5AEB4"/>
<path opacity="0.2" d="M54.8364 107.017H144.47L133.445 92.9049C132.232 91.3566 129.234 90.1042 126.739 90.1042H46.1285C43.6433 90.1042 42.598 91.3566 43.811 92.9049L54.8364 107.017Z" fill="black"/>
<path d="M181.501 107.017H91.8773L102.903 97.8161C104.116 96.8299 107.114 95.9917 109.609 95.9917H190.209C192.704 95.9917 193.74 96.8102 192.527 97.8161L181.501 107.017Z" fill="#A5AEB4"/>
<path opacity="0.2" d="M91.8773 107.017H181.501V172.411C181.501 173.249 181.336 174.078 181.015 174.852C180.695 175.626 180.225 176.33 179.632 176.922C179.04 177.515 178.336 177.985 177.562 178.306C176.788 178.626 175.958 178.791 175.121 178.791H98.2578C97.4199 178.791 96.5902 178.626 95.8161 178.306C95.042 177.985 94.3386 177.515 93.7461 176.922C93.1536 176.33 92.6836 175.626 92.363 174.852C92.0423 174.078 91.8773 173.249 91.8773 172.411V107.017Z" fill="white"/>
<path opacity="0.5" d="M65.9606 107.017V151.869L69.0572 149.423L71.2366 151.869L73.1301 149.147L75.0729 151.869L77.775 149.827L80.7532 151.869V107.017H65.9606Z" fill="white"/>
<path d="M108.489 93.7998C115.994 92.715 122.848 87.8828 127.227 81.8079C129.269 78.9695 130.773 75.7807 131.665 72.3998C132.611 69.2381 132.767 65.8923 132.118 62.6563C130.767 57.2422 125.757 54.0371 120.462 53.3665C117.774 53.013 115.042 53.2795 112.473 54.1456C109.81 55.0595 107.5 56.7837 105.866 59.0765C104.842 60.298 104.197 61.7927 104.012 63.3762C103.996 63.9964 104.215 64.5998 104.624 65.0659C105.034 65.532 105.604 65.8267 106.221 65.891C107.809 66.0248 109.396 65.6219 110.728 64.747C112.352 63.8363 113.783 62.6168 114.939 61.1573C117.419 58.096 119.276 54.578 120.402 50.8024C121.193 47.5627 121.193 44.1804 120.402 40.9407C119.802 37.5517 118.253 34.4024 115.935 31.858C113.278 29.4416 109.906 27.9565 106.33 27.6273C102.77 27.1382 99.146 27.4757 95.738 28.6134C94.2411 29.0673 92.8544 29.8261 91.6651 30.8422C90.817 31.6311 89.8506 32.9329 90.1957 34.2149C90.5409 35.497 92.4146 36.069 93.6868 35.9013C95.5696 35.5485 97.2943 34.6137 98.6177 33.2288C100.093 31.7768 101.345 30.1153 102.336 28.2979C103.071 26.9917 103.455 25.5169 103.45 24.0179C103.322 17.7655 96.4086 13.7221 90.9945 12.5782C89.533 12.2729 88.036 12.1733 86.5469 12.2823C86.0439 12.2823 86.3496 13.1107 86.754 13.0811C89.6674 12.9487 92.5628 13.6028 95.1365 14.9746C97.6756 16.1417 99.8082 18.0407 101.261 20.4282C101.908 21.6052 102.227 22.9344 102.186 24.277C102.144 25.6197 101.743 26.9265 101.024 28.0612C100.058 29.743 98.856 31.2774 97.454 32.6173C96.2804 33.6824 94.4955 34.9151 92.8485 34.7968C92.5766 34.7962 92.3104 34.7191 92.0802 34.5743C91.85 34.4296 91.6652 34.223 91.5468 33.9783C91.4971 33.6544 91.5238 33.3235 91.6248 33.0118C91.7259 32.7002 91.8984 32.4165 92.1286 32.1834C92.9995 31.2456 94.0765 30.5231 95.2745 30.073C98.2331 28.8431 101.437 28.3165 104.633 28.5346C107.928 28.5942 111.131 29.6232 113.844 31.4931C116.208 33.4553 117.886 36.118 118.637 39.0965C119.589 42.1223 119.884 45.3161 119.505 48.4652C118.919 51.634 117.702 54.6524 115.925 57.3408C114.101 60.3585 111.813 63.2579 108.381 64.4413C107.533 64.747 105.758 65.1908 105.422 63.9581C105.087 62.7253 106.053 61.2066 106.675 60.25C108.049 58.0878 110.052 56.398 112.414 55.4079C114.694 54.4941 117.155 54.1227 119.604 54.3231C124.248 54.6683 128.962 57.0943 130.58 61.7096C131.391 64.4679 131.479 67.3885 130.836 70.1907C130.256 73.2623 129.152 76.2113 127.572 78.9085C124.173 84.6395 119.027 89.1296 112.888 91.719C111.428 92.3502 109.929 92.8827 108.401 93.3758C108.243 93.435 108.312 93.8294 108.489 93.7998Z" fill="#E0E0E0"/>
<path d="M77.1387 8.17984C73.194 7.89385 67.7601 11.0003 69.693 13.2685C71.626 15.5367 76.7541 11.8681 76.7541 11.8681C76.7541 11.8681 76.2709 16.4539 77.9474 16.9765C79.6239 17.4992 81.8921 13.1206 80.2156 10.3198C81.0241 10.6386 81.9 10.7479 82.7621 10.6375C83.6241 10.5272 84.4443 10.2008 85.1465 9.68869C87.533 7.93329 85.0084 6.27651 81.6455 6.57236C81.6455 6.57236 84.0518 -1.31706 79.1899 0.19179C76.7541 0.931423 75.8961 3.78148 77.1387 8.17984Z" fill="#515F6B"/>
<path opacity="0.65" d="M77.1387 8.17984C73.194 7.89385 67.7601 11.0003 69.693 13.2685C71.626 15.5367 76.7541 11.8681 76.7541 11.8681C76.7541 11.8681 76.2709 16.4539 77.9474 16.9765C79.6239 17.4992 81.8921 13.1206 80.2156 10.3198C81.0241 10.6386 81.9 10.7479 82.7621 10.6375C83.6241 10.5272 84.4443 10.2008 85.1465 9.68869C87.533 7.93329 85.0084 6.27651 81.6455 6.57236C81.6455 6.57236 84.0518 -1.31706 79.1899 0.19179C76.7541 0.931423 75.8961 3.78148 77.1387 8.17984Z" fill="white"/>
<path d="M80.8072 9.85634C80.589 9.64262 80.3585 9.44176 80.1169 9.25477C79.7717 8.9885 79.4069 8.7321 79.0617 8.4757C78.7256 8.23134 78.3731 8.01055 78.0065 7.81494C77.7955 7.69786 77.5782 7.59251 77.3556 7.49937C77.0483 7.35505 76.7065 7.30036 76.3694 7.34158C76.2811 7.34407 76.1951 7.37025 76.1203 7.41738C76.0456 7.4645 75.9849 7.53086 75.9446 7.60948C75.9043 7.6881 75.8858 7.77611 75.8912 7.8643C75.8965 7.95249 75.9254 8.03762 75.975 8.1108C76.2461 8.40449 76.5845 8.62787 76.9611 8.76168L77.4937 9.04767C77.8586 9.26462 78.184 9.51117 78.4799 9.75771C78.7757 10.0043 79.1702 10.2409 79.466 10.4875C79.9747 10.9001 80.5434 11.2326 81.1524 11.4737C81.1797 11.4883 81.2102 11.496 81.2412 11.496C81.2721 11.496 81.3026 11.4883 81.3299 11.4737C81.8329 11.0792 81.0932 10.1423 80.8072 9.85634Z" fill="#455A64"/>
</svg>

