<svg width="1440" height="1024" viewBox="0 0 1440 1024" fill="none" xmlns="http://www.w3.org/2000/svg">
<g clip-path="url(#clip0_15034_5622)">
<rect width="1440" height="1024" fill="white"/>
<g clip-path="url(#clip1_15034_5622)">
<rect width="1442" height="1024" transform="translate(-2)" fill="url(#paint0_linear_15034_5622)"/>
<path d="M960.595 1023.94L1200.86 1023.94L1200.6 784L960.336 784L960.595 1023.94Z" fill="#F7F7F7"/>
<path d="M1199.93 783.936L1440.2 783.936L1439.94 544L1199.67 544L1199.93 783.936Z" fill="#F7F7F7"/>
<path d="M960.595 1023.94L1200.86 1023.94L1200.73 903.968L960.465 903.968L960.595 1023.94Z" fill="#EDEFF0"/>
<path d="M1201.25 1022.52L1441.52 1022.52L1441.26 784.001L1200.99 784.001L1201.25 1022.52Z" fill="#E4E6E9"/>
<path d="M1199.8 783.968C1199.73 717.712 1253.45 664 1319.8 664C1386.15 664 1439.99 717.712 1440.07 783.968" fill="#E4E6E9"/>
<path d="M1439.94 784L1440.19 1023.94L1439.4 1023.94C1438.02 892.714 1331.13 786.216 1199.67 785.178L1199.67 784.011L1439.94 784.011L1439.94 784Z" fill="#EDEFF0"/>
<g clip-path="url(#clip2_15034_5622)">
<rect width="1440" height="1024" transform="translate(0 -1)" fill="url(#paint1_linear_15034_5622)"/>
<path d="M240.193 239.064L480.129 239.064L479.869 -0.870798L239.934 -0.870819L240.193 239.064Z" fill="#243746"/>
<path d="M0.259857 239.064L240.195 239.064L239.936 -0.870798L0.000446132 -0.870819L0.259857 239.064Z" fill="#192631"/>
<path d="M0.259872 479L240.195 479L239.936 239.065L0.000461391 239.065L0.259872 479Z" fill="#1D2C38"/>
<path d="M-0.0014103 -0.871003L95.9212 -0.870994C96.0071 78.5355 160.683 143.142 240.089 143.142C319.496 143.142 384.033 78.5355 383.947 -0.870969L479.869 -0.870961C480.013 131.43 372.494 239.064 240.193 239.064C107.892 239.064 0.14163 131.43 -0.0014103 -0.871003Z" fill="#192631"/>
<path d="M0.25986 479L0.000448625 239.065L0.792799 239.065C2.17675 370.286 108.918 476.784 240.194 477.822L240.195 478.989L0.259848 478.989L0.25986 479Z" fill="#16202A"/>
<path d="M0.128938 -0.741063L240.064 -1.00046L240.064 -0.208114C108.843 1.17583 2.34537 107.917 1.30671 239.193L0.139592 239.194L0.139623 -0.741075L0.128938 -0.741063Z" fill="#16202A"/>
<path d="M960.26 1022.87L1200.2 1022.87L1199.94 782.936L960.001 782.936L960.26 1022.87Z" fill="#243746"/>
<path d="M1200.19 782.936L1440.13 782.936L1439.87 543L1199.93 543L1200.19 782.936Z" fill="#243746"/>
<path d="M960.26 1022.87L1200.2 1022.87L1200.07 902.903L960.13 902.903L960.26 1022.87Z" fill="#16202A"/>
<path d="M1200.32 1021.45L1440.26 1021.45L1440 782.936L1200.06 782.936L1200.32 1021.45Z" fill="#1D2C38"/>
<path d="M1200.19 782.936C1200.12 716.679 1253.78 662.968 1320.03 662.968C1386.29 662.968 1440.06 716.679 1440.13 782.936" fill="#192631"/>
<path d="M1438.68 782.936L1438.94 1022.87L1438.14 1022.87C1436.76 891.65 1330.02 785.152 1198.74 784.113L1198.74 782.946L1438.68 782.946L1438.68 782.936Z" fill="#16202A"/>
</g>
</g>
</g>
<defs>
<linearGradient id="paint0_linear_15034_5622" x1="721" y1="0" x2="721" y2="1024" gradientUnits="userSpaceOnUse">
<stop stop-color="white"/>
<stop offset="1" stop-color="#ECECEC"/>
</linearGradient>
<linearGradient id="paint1_linear_15034_5622" x1="720" y1="0" x2="720" y2="1024" gradientUnits="userSpaceOnUse">
<stop stop-color="#243746"/>
<stop offset="1" stop-color="#1A2732"/>
</linearGradient>
<clipPath id="clip0_15034_5622">
<rect width="1440" height="1024" fill="white"/>
</clipPath>
<clipPath id="clip1_15034_5622">
<rect width="1442" height="1024" fill="white" transform="translate(-2)"/>
</clipPath>
<clipPath id="clip2_15034_5622">
<rect width="1440" height="1024" fill="white" transform="translate(0 -1)"/>
</clipPath>
</defs>
</svg>
